<svg xmlns="http://www.w3.org/2000/svg" viewBox="0 0 24 24"><path fill="currentColor" d="M20.5 3.5A11.8 11.8 0 0 0 2 17.7L.4 23.5l6-1.6A11.8 11.8 0 0 0 20.5 3.5ZM12 21a9.6 9.6 0 0 1-4.9-1.3l-.4-.2-3.5.9.9-3.4-.2-.4A9.7 9.7 0 1 1 12 21Zm5.3-7.3c-.3-.1-1.7-.8-2-.9-.3-.1-.5-.1-.7.1-.2.3-.8 1-1 1.2-.2.2-.4.2-.7.1-1.8-.9-3-1.6-4.2-3.6-.3-.5.3-.5.9-1.7.1-.2.1-.4 0-.6L8.7 6c-.2-.5-.5-.4-.7-.4h-.6c-.2 0-.6.1-.9.4-.3.3-1.2 1.2-1.2 2.9 0 1.7 1.2 3.3 1.4 3.5.2.2 2.4 3.7 5.9 5.2 2.2 1 3.1 1 4.2.8.7-.1 1.7-.7 1.9-1.4.2-.7.2-1.3.2-1.4-.1-.1-.3-.2-.6-.3Z"/></svg>